<svg xmlns="http://www.w3.org/2000/svg" viewBox="0 0 512 512"><g fill="none" stroke-width="2"><path stroke="#004d16" d="m512 256.06-512-.12" vector-effect="non-scaling-stroke"/><path stroke="gray" d="M156.508 78.445a.39.39 0 0 0-.389-.39l-62.72-.11a.39.39 0 0 0-.39.39l-.017 9.56a.39.39 0 0 0 .389.39l62.72.11a.39.39 0 0 0 .39-.39l.017-9.56m98.362 8.965c-9.4-8.42-16.63-9.4-30.15-9.41q-29.74-.01-59.51.01a.51.5-90 0 0-.5.51l.06 9.29a.54.54 0 0 0 .54.54l89.21-.01q1.39 0 .35-.93m72.44 1.06q.12.05.33 0a.37.36 73.7 0 0 .25-.46l-2.96-9.5a.73.72 81.2 0 0-.69-.51h-49.37a.63.63 0 0 0-.63.63l.03 9.11a.58.58 0 0 0 .58.58l52.13-.01q.01 0 .33.16M368.3 78a.31.31 0 0 0-.29.21l-3.15 9.63a.31.31 0 0 0 .3.41h53.53a.31.31 0 0 0 .31-.31v-9.63a.31.31 0 0 0-.31-.31H368.3M156.49 97.92a.43.43 0 0 0-.43-.43H93.44a.43.43 0 0 0-.43.43v9.4a.43.43 0 0 0 .43.43h62.62a.43.43 0 0 0 .43-.43v-9.4m106.06-.45c-32.4.18-64.79-.31-97.2.15a.6.6 0 0 0-.6.6v8.76a.52.52 0 0 0 .53.52c2.74-.06 5.79.24 8.14.24q45.88.04 91.82-.02a.56.54 86.7 0 0 .54-.62q-.59-4.75-2.5-9.16a.8.79-11.9 0 0-.73-.47m67.93.03h-55.73a.5.49-.6 0 0-.5.5l.01 9.35a.4.4 0 0 0 .4.4h58.94a.52.51 81.3 0 0 .49-.67l-2.94-9.09a.71.7 80.9 0 0-.67-.49m31.09.41c-1.17 2.6-1.97 6.36-2.88 9.23a.48.48 0 0 0 .46.62q12.28.01 24.64-.1c10.27-.1 23.12.27 34.7-.01a.53.52 89.4 0 0 .51-.53V98a.5.5 0 0 0-.5-.5h-56.31a.69.67-77.9 0 0-.62.41m-223.58 19.27a.43.43 0 0 0-.43-.43h-26.38a.43.43 0 0 0-.43.43v9.38a.43.43 0 0 0 .43.43h26.38a.43.43 0 0 0 .43-.43v-9.38m72.26-.11a.31.31 0 0 0-.31-.31h-26.62a.31.31 0 0 0-.31.31v9.62a.31.31 0 0 0 .31.31h26.62a.31.31 0 0 0 .31-.31v-9.62m54.79 9.93a.43.43 0 0 0 .43-.37l1.23-9.39a.43.43 0 0 0-.43-.49h-28.34a.43.43 0 0 0-.43.43v9.39a.43.43 0 0 0 .43.43h27.11m75.03 0a.33.33 0 0 0 .32-.43l-3.16-9.59a.33.33 0 0 0-.31-.23h-44.34a.33.33 0 0 0-.33.33v9.59a.33.33 0 0 0 .33.33h47.49m15.82-10.25a.35.35 0 0 0-.33.24l-3.09 9.55a.35.35 0 0 0 .33.46h47.89a.35.35 0 0 0 .35-.35l-.06-9.55a.35.35 0 0 0-.35-.35h-44.74M138 136.18a.43.43 0 0 0-.43-.43h-26.38a.43.43 0 0 0-.43.43v9.4a.43.43 0 0 0 .43.43h26.38a.43.43 0 0 0 .43-.43v-9.4m115.65 9.48c2.92-2.63 5.55-6.16 7.11-9.46a.32.32 0 0 0-.29-.45H183.5a.51.5 0 0 0-.51.5l.02 9.35a.4.4 0 0 0 .4.4h69.36a1.31 1.28 23.2 0 0 .88-.34m120.6-5.87v5.58a.63.62 90 0 0 .62.63h25.63a.5.5 0 0 0 .5-.5v-9.25a.5.5 0 0 0-.5-.5h-50.53a.65.64-80.5 0 0-.61.44l-2.59 8.16a.29.28-45.9 0 1-.54.01l-2.76-8.09a.76.75-9 0 0-.72-.52h-50a.5.5 0 0 0-.5.5v9.25a.5.5 0 0 0 .5.5h25.77a.5.5 0 0 0 .5-.53q-.16-2.74.21-5.45.15-1.06.44-.03l1.51 5.34a.93.92-7.9 0 0 .89.67h49.25a.79.78 8.5 0 0 .75-.55l1.76-5.72q.43-1.4.42.06m-236.26 15.65a.43.43 0 0 0-.43-.43h-26.38a.43.43 0 0 0-.43.43v9.38a.43.43 0 0 0 .43.43h26.38a.43.43 0 0 0 .43-.43v-9.38m114.76-.44h-69.12a.63.63 0 0 0-.63.63v9.17a.48.48 0 0 0 .48.48l77.48-.01q.67 0 .3-.56-3.28-5.06-7.55-9.31a1.37 1.35 67.2 0 0-.96-.4m66.258.403a.38.38 0 0 0-.38-.38l-25.979-.046a.38.38 0 0 0-.38.38l-.017 9.5a.38.38 0 0 0 .38.38l25.979.046a.38.38 0 0 0 .38-.38l.017-9.5m46.452 9.857a.4.4 0 0 0 .38-.28l3-9.46a.4.4 0 0 0-.39-.52h-43.58a.4.4 0 0 0-.38.52l3.08 9.46a.4.4 0 0 0 .38.28h37.51m35.53-9.82a.43.43 0 0 0-.43-.43h-25.88a.43.43 0 0 0-.43.43v9.38a.43.43 0 0 0 .43.43h25.88a.43.43 0 0 0 .43-.43v-9.38m-190.25 19.59a.54.54 0 0 0-.54-.54h-26.66a.54.54 0 0 0-.54.54v9.18a.54.54 0 0 0 .54.54h26.66a.54.54 0 0 0 .54-.54v-9.18m55.29-.07a.52.52 0 0 0-.51-.44l-27-.06a.52.52 0 0 0-.52.52v9.25a.52.52 0 0 0 .52.52h28.33a.52.52 0 0 0 .51-.59l-1.33-9.2m52.978-.167a.28.28 0 0 0-.28-.28l-26.179-.046a.28.28 0 0 0-.28.28l-.017 9.7a.28.28 0 0 0 .28.28l26.179.046a.28.28 0 0 0 .28-.28l.017-9.7m40.472 9.767c1.07-3.17 2.15-6.33 3.08-9.59a.37.37 0 0 0-.35-.47l-31.12-.01a.41.41 0 0 0-.39.54l2.94 9.17a.79.78-8.5 0 0 .75.55h24.83a.27.27 0 0 0 .26-.19m-221.488-9.694a.39.39 0 0 0-.39-.39l-26.46.047a.39.39 0 0 0-.39.39l.016 9.42a.39.39 0 0 0 .39.39l26.46-.046a.39.39 0 0 0 .39-.39l-.016-9.42m262.991-.053a.36.36 0 0 0-.36-.36l-25.92.091a.36.36 0 0 0-.36.362l.034 9.48a.36.36 0 0 0 .36.358l25.92-.09a.36.36 0 0 0 .36-.362l-.034-9.48M156.41 193.59a.26.26 0 0 0-.26-.26H93.27a.26.26 0 0 0-.26.26v9.66a.26.26 0 0 0 .26.26h62.88a.26.26 0 0 0 .26-.26v-9.66m90.15.02q-40.61-.29-81.27-.26a.54.53 0 0 0-.54.53V203a.5.5 0 0 0 .5.5h97.06a.92.91-75.6 0 0 .8-.48q2.16-4 2.77-8.55a1.18 1.18 0 0 0-1.24-1.34q-9.58.54-18.08.48m72.448.15a.35.35 0 0 0-.35-.352l-44.04-.076a.35.35 0 0 0-.35.349l-.016 9.44a.35.35 0 0 0 .35.35l44.04.077a.35.35 0 0 0 .35-.349l.016-9.44m34.112 9.781a.47.47 0 0 0 .45-.33l2.91-9.35a.47.47 0 0 0-.45-.61h-18.82a.47.47 0 0 0-.45.61l2.92 9.29a.47.47 0 0 0 .44.33l13 .06m65.862-9.869a.26.26 0 0 0-.26-.26l-44.02.077a.26.26 0 0 0-.26.26l.016 9.54a.26.26 0 0 0 .26.26l44.02-.076a.26.26 0 0 0 .26-.26l-.016-9.54M156.49 213.18a.43.43 0 0 0-.43-.43H93.42a.43.43 0 0 0-.43.43v9.38a.43.43 0 0 0 .43.43h62.64a.43.43 0 0 0 .43-.43v-9.38m8.13 9.05q-.19.22-.08.42a.69.67 74.1 0 0 .58.33q30.6.07 61.13-.01c12.91-.04 21.13-1.2 29.63-9.82q.39-.4-.16-.4h-90.47a.5.5 0 0 0-.5.5v8.66a.46.44 68.4 0 1-.13.32M319 213.06a.3.3 0 0 0-.3-.3h-44a.3.3 0 0 0-.3.3v9.64a.3.3 0 0 0 .3.3h44a.3.3 0 0 0 .3-.3v-9.64m28.47 9.34 2.9-9.09a.43.42-81 0 0-.4-.56h-6.44a.42.42 0 0 0-.4.53c.38 1.35 2.48 9.74 3.54 9.72a.87.85 7.5 0 0 .8-.6m71.53-9.34a.3.3 0 0 0-.3-.3h-44.02a.3.3 0 0 0-.3.3v9.64a.3.3 0 0 0 .3.3h44.02a.3.3 0 0 0 .3-.3v-9.64" vector-effect="non-scaling-stroke"/><path stroke="#80cd96" d="M211.16 337.35c-2.74-19.35-14.19-29.36-33.66-29.36q-18.32 0-36.55.02a.45.44 0 0 0-.45.44v108.06a.44.44 0 0 0 .44.44q19.35.2 38.61-.14c23.76-.43 31.1-18.82 32.69-39.31q1.64-21.01-1.08-40.15m67.88 22.18q8.74-3.06 12.7-10.74c2.73-5.28 3.3-12.08 2.63-18.11-1.93-17.32-14.99-22.68-30.63-22.7q-18.33-.03-36.76.07a.48.48 0 0 0-.48.48V416.5a.49.49 0 0 0 .49.49q20.11.05 40.19-.24c16.49-.24 28.3-9.18 30.4-25.61 1.88-14.78-2.72-27.63-18.53-31.34q-.47-.11-.01-.27m52.94 39.63c5.45-13.51 20.23-21.91 29.84-32.89q9.16-10.47 9.93-25.46c1.12-21.72-11.32-31.55-31.09-31.85-23.12-.35-36.64 10.33-34.8 34.7a.64.64 0 0 0 .64.59h19.96a.5.5 0 0 0 .5-.5c-.09-7.99.41-19.28 10.67-20.48 10.62-1.25 11.81 7.04 11.93 15.01.12 7.58-1.72 13.58-7.41 19.12-17.73 17.23-36.69 31.47-36.36 59.11a.5.49 89.4 0 0 .49.49h65.76a.49.48 0 0 0 .49-.48v-16.01a.51.51 0 0 0-.51-.51h-39.47a.61.61 0 0 1-.57-.84" vector-effect="non-scaling-stroke"/><path stroke="#80cd96" d="M190.22 347.51c-.6-10.05-2.85-22.96-15.93-23.22-3.61-.07-7.23-.28-10.81-.18a.53.53 0 0 0-.51.52c-.22 25.76.19 52.87-.13 75.6a.54.53-87.2 0 0 .49.55c20.01 1.87 25.99-4.42 26.88-23.54q.79-16.68.01-29.73m81.72-13.73c-1.71-11.3-14.96-9.35-22.74-9.67a.44.44 0 0 0-.45.44v27.71a.63.63 0 0 0 .59.63c13.97.83 25.26-1.45 22.6-19.11m2.65 47.67c-1.1-14.12-14.84-14-25.26-13.33a.63.62 88.1 0 0-.58.63v31.5a.63.63 0 0 0 .58.63c14.83 1.14 26.69-1.12 25.26-19.43" vector-effect="non-scaling-stroke"/></g><path d="M86.31 0h349.25c43.46 7.97 74.43 41.62 76.44 86.06v170l-512-.12V86.19C2.76 38.6 38.85 3.13 86.31 0Zm70.198 78.445a.39.39 0 0 0-.389-.39l-62.72-.11a.39.39 0 0 0-.39.39l-.017 9.56a.39.39 0 0 0 .389.39l62.72.11a.39.39 0 0 0 .39-.39l.017-9.56Zm98.362 8.965c-9.4-8.42-16.63-9.4-30.15-9.41q-29.74-.01-59.51.01a.51.5-90 0 0-.5.51l.06 9.29a.54.54 0 0 0 .54.54l89.21-.01q1.39 0 .35-.93Zm72.44 1.06q.12.05.33 0a.37.36 73.7 0 0 .25-.46l-2.96-9.5a.73.72 81.2 0 0-.69-.51h-49.37a.63.63 0 0 0-.63.63l.03 9.11a.58.58 0 0 0 .58.58l52.13-.01q.01 0 .33.16ZM368.3 78a.31.31 0 0 0-.29.21l-3.15 9.63a.31.31 0 0 0 .3.41h53.53a.31.31 0 0 0 .31-.31v-9.63a.31.31 0 0 0-.31-.31H368.3ZM156.49 97.92a.43.43 0 0 0-.43-.43H93.44a.43.43 0 0 0-.43.43v9.4a.43.43 0 0 0 .43.43h62.62a.43.43 0 0 0 .43-.43v-9.4Zm106.06-.45c-32.4.18-64.79-.31-97.2.15a.6.6 0 0 0-.6.6v8.76a.52.52 0 0 0 .53.52c2.74-.06 5.79.24 8.14.24q45.88.04 91.82-.02a.56.54 86.7 0 0 .54-.62q-.59-4.75-2.5-9.16a.8.79-11.9 0 0-.73-.47Zm67.93.03h-55.73a.5.49-.6 0 0-.5.5l.01 9.35a.4.4 0 0 0 .4.4h58.94a.52.51 81.3 0 0 .49-.67l-2.94-9.09a.71.7 80.9 0 0-.67-.49Zm31.09.41c-1.17 2.6-1.97 6.36-2.88 9.23a.48.48 0 0 0 .46.62q12.28.01 24.64-.1c10.27-.1 23.12.27 34.7-.01a.53.52 89.4 0 0 .51-.53V98a.5.5 0 0 0-.5-.5h-56.31a.69.67-77.9 0 0-.62.41Zm-223.58 19.27a.43.43 0 0 0-.43-.43h-26.38a.43.43 0 0 0-.43.43v9.38a.43.43 0 0 0 .43.43h26.38a.43.43 0 0 0 .43-.43v-9.38Zm72.26-.11a.31.31 0 0 0-.31-.31h-26.62a.31.31 0 0 0-.31.31v9.62a.31.31 0 0 0 .31.31h26.62a.31.31 0 0 0 .31-.31v-9.62Zm54.79 9.93a.43.43 0 0 0 .43-.37l1.23-9.39a.43.43 0 0 0-.43-.49h-28.34a.43.43 0 0 0-.43.43v9.39a.43.43 0 0 0 .43.43h27.11Zm75.03 0a.33.33 0 0 0 .32-.43l-3.16-9.59a.33.33 0 0 0-.31-.23h-44.34a.33.33 0 0 0-.33.33v9.59a.33.33 0 0 0 .33.33h47.49Zm15.82-10.25a.35.35 0 0 0-.33.24l-3.09 9.55a.35.35 0 0 0 .33.46h47.89a.35.35 0 0 0 .35-.35l-.06-9.55a.35.35 0 0 0-.35-.35h-44.74ZM138 136.18a.43.43 0 0 0-.43-.43h-26.38a.43.43 0 0 0-.43.43v9.4a.43.43 0 0 0 .43.43h26.38a.43.43 0 0 0 .43-.43v-9.4Zm115.65 9.48c2.92-2.63 5.55-6.16 7.11-9.46a.32.32 0 0 0-.29-.45H183.5a.51.5 0 0 0-.51.5l.02 9.35a.4.4 0 0 0 .4.4h69.36a1.31 1.28 23.2 0 0 .88-.34Zm120.6-5.87v5.58a.63.62 90 0 0 .62.63h25.63a.5.5 0 0 0 .5-.5v-9.25a.5.5 0 0 0-.5-.5h-50.53a.65.64-80.5 0 0-.61.44l-2.59 8.16a.29.28-45.9 0 1-.54.01l-2.76-8.09a.76.75-9 0 0-.72-.52h-50a.5.5 0 0 0-.5.5v9.25a.5.5 0 0 0 .5.5h25.77a.5.5 0 0 0 .5-.53q-.16-2.74.21-5.45.15-1.06.44-.03l1.51 5.34a.93.92-7.9 0 0 .89.67h49.25a.79.78 8.5 0 0 .75-.55l1.76-5.72q.43-1.4.42.06Zm-236.26 15.65a.43.43 0 0 0-.43-.43h-26.38a.43.43 0 0 0-.43.43v9.38a.43.43 0 0 0 .43.43h26.38a.43.43 0 0 0 .43-.43v-9.38Zm114.76-.44h-69.12a.63.63 0 0 0-.63.63v9.17a.48.48 0 0 0 .48.48l77.48-.01q.67 0 .3-.56-3.28-5.06-7.55-9.31a1.37 1.35 67.2 0 0-.96-.4Zm66.258.403a.38.38 0 0 0-.38-.38l-25.979-.046a.38.38 0 0 0-.38.38l-.017 9.5a.38.38 0 0 0 .38.38l25.979.046a.38.38 0 0 0 .38-.38l.017-9.5Zm46.452 9.857a.4.4 0 0 0 .38-.28l3-9.46a.4.4 0 0 0-.39-.52h-43.58a.4.4 0 0 0-.38.52l3.08 9.46a.4.4 0 0 0 .38.28h37.51Zm35.53-9.82a.43.43 0 0 0-.43-.43h-25.88a.43.43 0 0 0-.43.43v9.38a.43.43 0 0 0 .43.43h25.88a.43.43 0 0 0 .43-.43v-9.38Zm-190.25 19.59a.54.54 0 0 0-.54-.54h-26.66a.54.54 0 0 0-.54.54v9.18a.54.54 0 0 0 .54.54h26.66a.54.54 0 0 0 .54-.54v-9.18Zm55.29-.07a.52.52 0 0 0-.51-.44l-27-.06a.52.52 0 0 0-.52.52v9.25a.52.52 0 0 0 .52.52h28.33a.52.52 0 0 0 .51-.59l-1.33-9.2Zm52.978-.167a.28.28 0 0 0-.28-.28l-26.179-.046a.28.28 0 0 0-.28.28l-.017 9.7a.28.28 0 0 0 .28.28l26.179.046a.28.28 0 0 0 .28-.28l.017-9.7Zm40.472 9.767c1.07-3.17 2.15-6.33 3.08-9.59a.37.37 0 0 0-.35-.47l-31.12-.01a.41.41 0 0 0-.39.54l2.94 9.17a.79.78-8.5 0 0 .75.55h24.83a.27.27 0 0 0 .26-.19Zm-221.488-9.694a.39.39 0 0 0-.39-.39l-26.46.047a.39.39 0 0 0-.39.39l.016 9.42a.39.39 0 0 0 .39.39l26.46-.046a.39.39 0 0 0 .39-.39l-.016-9.42Zm262.991-.053a.36.36 0 0 0-.36-.358l-25.92.09a.36.36 0 0 0-.36.362l.034 9.48a.36.36 0 0 0 .36.358l25.92-.09a.36.36 0 0 0 .36-.362l-.034-9.48ZM156.41 193.59a.26.26 0 0 0-.26-.26H93.27a.26.26 0 0 0-.26.26v9.66a.26.26 0 0 0 .26.26h62.88a.26.26 0 0 0 .26-.26v-9.66Zm90.15.02q-40.61-.29-81.27-.26a.54.53 0 0 0-.54.53V203a.5.5 0 0 0 .5.5h97.06a.92.91-75.6 0 0 .8-.48q2.16-4 2.77-8.55a1.18 1.18 0 0 0-1.24-1.34q-9.58.54-18.08.48Zm72.448.15a.35.35 0 0 0-.35-.352l-44.04-.076a.35.35 0 0 0-.35.349l-.016 9.44a.35.35 0 0 0 .35.35l44.04.077a.35.35 0 0 0 .35-.349l.016-9.44Zm34.112 9.78a.47.47 0 0 0 .45-.33l2.91-9.35a.47.47 0 0 0-.45-.61h-18.82a.47.47 0 0 0-.45.61l2.92 9.29a.47.47 0 0 0 .44.33l13 .06Zm65.862-9.869a.26.26 0 0 0-.26-.26l-44.02.077a.26.26 0 0 0-.26.26l.016 9.54a.26.26 0 0 0 .26.26l44.02-.076a.26.26 0 0 0 .26-.26l-.016-9.54ZM156.49 213.18a.43.43 0 0 0-.43-.43H93.42a.43.43 0 0 0-.43.43v9.38a.43.43 0 0 0 .43.43h62.64a.43.43 0 0 0 .43-.43v-9.38Zm8.13 9.05q-.19.22-.08.42a.69.67 74.1 0 0 .58.33q30.6.07 61.13-.01c12.91-.04 21.13-1.2 29.63-9.82q.39-.4-.16-.4h-90.47a.5.5 0 0 0-.5.5v8.66a.46.44 68.4 0 1-.13.32ZM319 213.06a.3.3 0 0 0-.3-.3h-44a.3.3 0 0 0-.3.3v9.64a.3.3 0 0 0 .3.3h44a.3.3 0 0 0 .3-.3v-9.64Zm28.47 9.34 2.9-9.09a.43.42-81 0 0-.4-.56h-6.44a.42.42 0 0 0-.4.53c.38 1.35 2.48 9.74 3.54 9.72a.87.85 7.5 0 0 .8-.6Zm71.53-9.34a.3.3 0 0 0-.3-.3h-44.02a.3.3 0 0 0-.3.3v9.64a.3.3 0 0 0 .3.3h44.02a.3.3 0 0 0 .3-.3v-9.64Z"/><rect width="63.5" height="10.34" x="-31.75" y="-5.17" fill="#fff" rx=".39" transform="rotate(.1 -47590.513 71518.052)"/><path fill="#fff" d="M254.87 87.41q1.04.93-.35.93l-89.21.01a.54.54 0 0 1-.54-.54l-.06-9.29a.51.5-90 0 1 .5-.51q29.77-.02 59.51-.01c13.52.01 20.75.99 30.15 9.41Zm72.11.9-52.13.01a.58.58 0 0 1-.58-.58l-.03-9.11a.63.63 0 0 1 .63-.63h49.37a.73.72 81.2 0 1 .69.51l2.96 9.5a.37.36 73.7 0 1-.25.46q-.21.05-.33 0-.32-.16-.33-.16ZM368.3 78h50.39a.31.31 0 0 1 .31.31v9.63a.31.31 0 0 1-.31.31h-53.53a.31.31 0 0 1-.3-.41l3.15-9.63a.31.31 0 0 1 .29-.21Z"/><rect width="63.48" height="10.26" x="93.01" y="97.49" fill="#fff" rx=".43"/><path fill="#fff" d="M165.35 97.62c32.41-.46 64.8.03 97.2-.15a.8.79-11.9 0 1 .73.47q1.91 4.41 2.5 9.16a.56.54 86.7 0 1-.54.62q-45.94.06-91.82.02c-2.35 0-5.4-.3-8.14-.24a.52.52 0 0 1-.53-.52v-8.76a.6.6 0 0 1 .6-.6Zm165.8.37 2.94 9.09a.52.51 81.3 0 1-.49.67h-58.94a.4.4 0 0 1-.4-.4l-.01-9.35a.5.49-.6 0 1 .5-.5h55.73a.71.7 80.9 0 1 .67.49Zm27.54 9.15c.91-2.87 1.71-6.63 2.88-9.23a.69.67-77.9 0 1 .62-.41h56.31a.5.5 0 0 1 .5.5v9.12a.53.52 89.4 0 1-.51.53c-11.58.28-24.43-.09-34.7.01q-12.36.11-24.64.1a.48.48 0 0 1-.46-.62Z"/><rect width="27.24" height="10.24" x="110.75" y="116.75" fill="#fff" rx=".43"/><rect width="27.24" height="10.24" x="183.01" y="116.76" fill="#fff" rx=".31"/><path fill="#fff" d="M265.04 127h-27.11a.43.43 0 0 1-.43-.43v-9.39a.43.43 0 0 1 .43-.43h28.34a.43.43 0 0 1 .43.49l-1.23 9.39a.43.43 0 0 1-.43.37Zm75.03 0h-47.49a.33.33 0 0 1-.33-.33v-9.59a.33.33 0 0 1 .33-.33h44.34a.33.33 0 0 1 .31.23l3.16 9.59a.33.33 0 0 1-.32.43Zm15.82-10.25h44.74a.35.35 0 0 1 .35.35l.06 9.55a.35.35 0 0 1-.35.35H352.8a.35.35 0 0 1-.33-.46l3.09-9.55a.35.35 0 0 1 .33-.24Z"/><rect width="27.24" height="10.26" x="110.76" y="135.75" fill="#fff" rx=".43"/><path fill="#fff" d="M260.76 136.2c-1.56 3.3-4.19 6.83-7.11 9.46a1.31 1.28 23.2 0 1-.88.34h-69.36a.4.4 0 0 1-.4-.4l-.02-9.35a.51.5 0 0 1 .51-.5h76.97a.32.32 0 0 1 .29.45Zm113.07 3.53-1.76 5.72a.79.78 8.5 0 1-.75.55h-49.25a.93.92-7.9 0 1-.89-.67l-1.51-5.34q-.29-1.03-.44.03-.37 2.71-.21 5.45a.5.5 0 0 1-.5.53h-25.77a.5.5 0 0 1-.5-.5v-9.25a.5.5 0 0 1 .5-.5h50a.76.75-9 0 1 .72.52l2.76 8.09a.29.28-45.9 0 0 .54-.01l2.59-8.16a.65.64-80.5 0 1 .61-.44h50.53a.5.5 0 0 1 .5.5v9.25a.5.5 0 0 1-.5.5h-25.63a.63.62-90 0 1-.62-.63v-5.58q.01-1.46-.42-.06Z"/><rect width="27.24" height="10.24" x="110.75" y="155.01" fill="#fff" rx=".43"/><path fill="#fff" d="M253.71 155.4q4.27 4.25 7.55 9.31.37.56-.3.56l-77.48.01a.48.48 0 0 1-.48-.48v-9.17a.63.63 0 0 1 .63-.63h69.12a1.37 1.35 67.2 0 1 .96.4Z"/><rect width="26.74" height="10.26" x="-13.37" y="-5.13" fill="#fff" rx=".38" transform="rotate(.1 -91594.893 175193.111)"/><path fill="#fff" d="M365.46 165.26h-37.51a.4.4 0 0 1-.38-.28l-3.08-9.46a.4.4 0 0 1 .38-.52h43.58a.4.4 0 0 1 .39.52l-3 9.46a.4.4 0 0 1-.38.28Z"/><rect width="26.74" height="10.24" x="374.25" y="155.01" fill="#fff" rx=".43"/><rect width="27.74" height="10.26" x="183" y="174.49" fill="#fff" rx=".54"/><path fill="#fff" d="m266.03 174.96 1.33 9.2a.52.52 0 0 1-.51.59h-28.33a.52.52 0 0 1-.52-.52v-9.25a.52.52 0 0 1 .52-.52l27 .06a.52.52 0 0 1 .51.44Z"/><rect width="26.74" height="10.26" x="-13.37" y="-5.13" fill="#fff" rx=".28" transform="rotate(.1 -102761.838 175202.856)"/><path fill="#fff" d="M362.56 174.97c-.93 3.26-2.01 6.42-3.08 9.59a.27.27 0 0 1-.26.19h-24.83a.79.78-8.5 0 1-.75-.55l-2.94-9.17a.41.41 0 0 1 .39-.54l31.12.01a.37.37 0 0 1 .35.47Z"/><rect width="27.24" height="10.2" x="-13.62" y="-5.1" fill="#fff" rx=".39" transform="rotate(-.1 102965.384 -71174.672)"/><rect width="26.64" height="10.2" x="-13.32" y="-5.1" fill="#fff" rx=".36" transform="rotate(-.2 51645.398 -110972.226)"/><rect width="63.4" height="10.18" x="93.01" y="193.33" fill="#fff" rx=".26"/><path fill="#fff" d="M246.56 193.61q8.5.06 18.08-.48a1.18 1.18 0 0 1 1.24 1.34q-.61 4.55-2.77 8.55a.92.91-75.6 0 1-.8.48h-97.06a.5.5 0 0 1-.5-.5v-9.12a.54.53 0 0 1 .54-.53q40.66-.03 81.27.26Z"/><rect width="44.74" height="10.14" x="-22.37" y="-5.07" fill="#fff" rx=".35" transform="rotate(.1 -113549.401 170055.648)"/><path fill="#fff" d="m353.12 203.54-13-.06a.47.47 0 0 1-.44-.33l-2.92-9.29a.47.47 0 0 1 .45-.61h18.82a.47.47 0 0 1 .45.61l-2.91 9.35a.47.47 0 0 1-.45.33Z"/><rect width="44.54" height="10.06" x="-22.27" y="-5.03" fill="#fff" rx=".26" transform="rotate(-.1 113918.994 -227204.519)"/><rect width="63.5" height="10.24" x="92.99" y="212.75" fill="#fff" rx=".43"/><path fill="#fff" d="M164.75 221.91v-8.66a.5.5 0 0 1 .5-.5h90.47q.55 0 .16.4c-8.5 8.62-16.72 9.78-29.63 9.82q-30.53.08-61.13.01a.69.67 74.1 0 1-.58-.33q-.11-.2.08-.42a.46.44 68.4 0 0 .13-.32Z"/><rect width="44.6" height="10.24" x="274.4" y="212.76" fill="#fff" rx=".3"/><path fill="#fff" d="M347.47 222.4a.87.85 7.5 0 1-.8.6c-1.06.02-3.16-8.37-3.54-9.72a.42.42 0 0 1 .4-.53h6.44a.43.42-81 0 1 .4.56l-2.9 9.09Z"/><rect width="44.62" height="10.24" x="374.38" y="212.76" fill="#fff" rx=".3"/><path fill="#009a2c" d="m0 255.94 512 .12v169.5c-1.66 44.43-33.13 78.94-76.81 86.44H70.94C30.35 502.43 2.19 469.14 0 427.44v-171.5Zm211.16 81.41c-2.74-19.35-14.19-29.36-33.66-29.36q-18.32 0-36.55.02a.45.44 0 0 0-.45.44v108.06a.44.44 0 0 0 .44.44q19.35.2 38.61-.14c23.76-.43 31.1-18.82 32.69-39.31q1.64-21.01-1.08-40.15Zm67.88 22.18q8.74-3.06 12.7-10.74c2.73-5.28 3.3-12.08 2.63-18.11-1.93-17.32-14.99-22.68-30.63-22.7q-18.33-.03-36.76.07a.48.48 0 0 0-.48.48V416.5a.49.49 0 0 0 .49.49q20.11.05 40.19-.24c16.49-.24 28.3-9.18 30.4-25.61 1.88-14.78-2.72-27.63-18.53-31.34q-.47-.11-.01-.27Zm52.94 39.63c5.45-13.51 20.23-21.91 29.84-32.89q9.16-10.47 9.93-25.46c1.12-21.72-11.32-31.55-31.09-31.85-23.12-.35-36.64 10.33-34.8 34.7a.64.64 0 0 0 .64.59h19.96a.5.5 0 0 0 .5-.5c-.09-7.99.41-19.28 10.67-20.48 10.62-1.25 11.81 7.04 11.93 15.01.12 7.58-1.72 13.58-7.41 19.12-17.73 17.23-36.69 31.47-36.36 59.11a.5.49 89.4 0 0 .49.49h65.76a.49.48 0 0 0 .49-.48v-16.01a.51.51 0 0 0-.51-.51h-39.47a.61.61 0 0 1-.57-.84Z"/><path fill="#fff" d="M177.5 307.99c19.47 0 30.92 10.01 33.66 29.36q2.72 19.14 1.08 40.15c-1.59 20.49-8.93 38.88-32.69 39.31q-19.26.34-38.61.14a.44.44 0 0 1-.44-.44V308.45a.45.44 0 0 1 .45-.44q18.23-.02 36.55-.02Zm12.72 39.52c-.6-10.05-2.85-22.96-15.93-23.22-3.61-.07-7.23-.28-10.81-.18a.53.53 0 0 0-.51.52c-.22 25.76.19 52.87-.13 75.6a.54.53-87.2 0 0 .49.55c20.01 1.87 25.99-4.42 26.88-23.54q.79-16.68.01-29.73Zm88.83 12.29c15.81 3.71 20.41 16.56 18.53 31.34-2.1 16.43-13.91 25.37-30.4 25.61q-20.08.29-40.19.24a.49.49 0 0 1-.49-.49V308.53a.48.48 0 0 1 .48-.48q18.43-.1 36.76-.07c15.64.02 28.7 5.38 30.63 22.7.67 6.03.1 12.83-2.63 18.11q-3.96 7.68-12.7 10.74-.46.16.01.27Zm-7.11-26.02c-1.71-11.3-14.96-9.35-22.74-9.67a.44.44 0 0 0-.45.44v27.71a.63.63 0 0 0 .59.63c13.97.83 25.26-1.45 22.6-19.11Zm2.65 47.67c-1.1-14.12-14.84-14-25.26-13.33a.63.62 88.1 0 0-.58.63v31.5a.63.63 0 0 0 .58.63c14.83 1.14 26.69-1.12 25.26-19.43Zm57.39 17.71a.61.61 0 0 0 .57.84h39.47a.51.51 0 0 1 .51.51v16.01a.49.48 0 0 1-.49.48h-65.76a.5.49 89.4 0 1-.49-.49c-.33-27.64 18.63-41.88 36.36-59.11 5.69-5.54 7.53-11.54 7.41-19.12-.12-7.97-1.31-16.26-11.93-15.01-10.26 1.2-10.76 12.49-10.67 20.48a.5.5 0 0 1-.5.5H306.5a.64.64 0 0 1-.64-.59c-1.84-24.37 11.68-35.05 34.8-34.7 19.77.3 32.21 10.13 31.09 31.85q-.77 14.99-9.93 25.46c-9.61 10.98-24.39 19.38-29.84 32.89Z"/><path fill="#009a2c" d="M174.29 324.29c13.08.26 15.33 13.17 15.93 23.22q.78 13.05-.01 29.73c-.89 19.12-6.87 25.41-26.88 23.54a.54.53-87.2 0 1-.49-.55c.32-22.73-.09-49.84.13-75.6a.53.53 0 0 1 .51-.52c3.58-.1 7.2.11 10.81.18Zm74.91-.18c7.78.32 21.03-1.63 22.74 9.67 2.66 17.66-8.63 19.94-22.6 19.11a.63.63 0 0 1-.59-.63v-27.71a.44.44 0 0 1 .45-.44Zm.13 44.01c10.42-.67 24.16-.79 25.26 13.33 1.43 18.31-10.43 20.57-25.26 19.43a.63.63 0 0 1-.58-.63v-31.5a.63.62 88.1 0 1 .58-.63Z"/></svg>